<svg width="184" height="47" viewBox="0 0 184 47" fill="none" xmlns="http://www.w3.org/2000/svg">
<path d="M96.3978 22.9988C96.3978 25.4299 94.4267 27.4009 91.9956 27.4009C89.5646 27.4009 87.5935 25.4299 87.5935 22.9988C87.5935 20.5678 89.5646 18.5967 91.9956 18.5967C94.4267 18.5967 96.3978 20.5678 96.3978 22.9988Z" fill="white"/>
<path d="M102.29 15.2083C102.078 14.6351 101.741 14.1158 101.302 13.69C100.876 13.2516 100.357 12.9138 99.7836 12.7018C99.3182 12.5212 98.6192 12.3056 97.3318 12.2472C95.9393 12.1834 95.5216 12.1699 91.9954 12.1699C88.4692 12.1699 88.0514 12.1834 86.6589 12.2472C85.3715 12.3065 84.6717 12.5212 84.2072 12.7018C83.6331 12.9138 83.1147 13.2507 82.6889 13.69C82.2505 14.1158 81.9127 14.6351 81.7007 15.2083C81.5201 15.6737 81.3045 16.3726 81.2461 17.6609C81.1823 19.0534 81.1688 19.4712 81.1688 22.9974C81.1688 26.5236 81.1823 26.9413 81.2461 28.3338C81.3045 29.6212 81.5201 30.3202 81.7007 30.7856C81.9127 31.3596 82.2496 31.878 82.6889 32.3039C83.1147 32.7423 83.634 33.0801 84.2072 33.2921C84.6726 33.4736 85.3724 33.6883 86.6598 33.7467C88.0523 33.8105 88.4692 33.8239 91.9963 33.8239C95.5234 33.8239 95.9411 33.8105 97.3327 33.7467C98.6201 33.6883 99.32 33.4727 99.7854 33.2921C100.937 32.8474 101.847 31.9373 102.292 30.7856C102.472 30.3202 102.688 29.6212 102.746 28.3338C102.81 26.9413 102.824 26.5236 102.824 22.9974C102.824 19.4712 102.81 19.0534 102.746 17.6609C102.686 16.3735 102.472 15.6737 102.29 15.2083ZM91.9954 29.7785C88.25 29.7785 85.2134 26.7428 85.2134 22.9974C85.2134 19.252 88.25 16.2163 91.9954 16.2163C95.7408 16.2163 98.7765 19.252 98.7765 22.9974C98.7765 26.7428 95.7408 29.7785 91.9954 29.7785ZM99.0451 17.5324C98.17 17.5324 97.4603 16.8227 97.4603 15.9477C97.4603 15.0726 98.17 14.3629 99.0451 14.3629C99.9201 14.3629 100.63 15.0726 100.63 15.9477C100.629 16.8227 99.9201 17.5324 99.0451 17.5324Z" fill="white"/>
<path d="M160.995 0C148.29 0 137.993 10.2963 137.993 23.002C137.993 35.7078 148.29 46.0041 160.995 46.0041C173.701 46.0041 183.991 35.7015 183.991 23.002C183.991 10.3026 173.695 0 160.995 0ZM172.66 25.4867C173.733 26.5345 174.868 27.5196 175.828 28.6741C176.255 29.1824 176.656 29.7157 176.964 30.3055C177.403 31.1525 177.008 32.0811 176.249 32.1313H171.536C170.319 32.2317 169.353 31.7423 168.531 30.9078C167.879 30.2427 167.276 29.5337 166.649 28.8498C166.391 28.5675 166.122 28.3039 165.802 28.0969C165.162 27.6828 164.603 27.8083 164.233 28.4796C163.857 29.1635 163.775 29.9165 163.737 30.6757C163.687 31.7862 163.348 32.0749 162.238 32.1313C159.854 32.2443 157.595 31.8866 155.493 30.6819C153.642 29.6216 152.205 28.1283 150.956 26.4342C148.522 23.1338 146.658 19.5135 144.983 15.7865C144.607 14.9457 144.883 14.5002 145.805 14.4814C147.342 14.45 148.88 14.4563 150.423 14.4814C151.05 14.4939 151.465 14.8516 151.703 15.4414C152.531 17.4868 153.554 19.4319 154.828 21.2327C155.167 21.7158 155.512 22.1926 156.007 22.5315C156.553 22.9079 156.967 22.7824 157.225 22.1738C157.394 21.7848 157.463 21.3707 157.494 20.9566C157.62 19.5323 157.632 18.1143 157.419 16.6962C157.287 15.8116 156.792 15.2343 155.907 15.0712C155.461 14.9833 155.524 14.8202 155.744 14.5629C156.127 14.1175 156.478 13.8414 157.193 13.8414H162.514C163.355 14.0045 163.543 14.381 163.656 15.228L163.662 21.1448C163.65 21.4711 163.825 22.4436 164.409 22.657C164.879 22.8138 165.193 22.4311 165.475 22.1362C166.749 20.7809 167.659 19.1809 168.475 17.5307C168.832 16.8029 169.146 16.0437 169.447 15.2908C169.673 14.7324 170.018 14.4563 170.652 14.4688L175.778 14.4751C175.929 14.4751 176.079 14.4751 176.23 14.5002C177.096 14.6445 177.328 15.021 177.064 15.8618C176.644 17.1857 175.828 18.29 175.025 19.3943C174.172 20.5801 173.256 21.7221 172.409 22.9079C171.631 23.9934 171.693 24.5456 172.66 25.4867Z" fill="white"/>
<path d="M22.9989 0C10.3137 0 0 10.3137 0 22.9989C0 35.6841 10.3137 45.9978 22.9989 45.9978C35.6841 45.9978 45.9978 35.6841 45.9978 22.9989C45.9978 10.3137 35.6841 0 22.9989 0ZM28.7178 23.8018H24.9752C24.9752 29.78 24.9752 37.1416 24.9752 37.1416H19.4293C19.4293 37.1416 19.4293 29.8541 19.4293 23.8018H16.7983V19.0958H19.4293V16.0449C19.4293 13.8586 20.4668 10.4496 25.0246 10.4496L29.1377 10.4619V15.0444C29.1377 15.0444 26.6427 15.0444 26.1609 15.0444C25.6792 15.0444 24.9875 15.2914 24.9875 16.329V19.0958H29.2118L28.7178 23.8018Z" fill="white"/>
<path d="M91.9956 0C79.2959 0 68.9967 10.2992 68.9967 22.9989C68.9967 35.6986 79.2959 45.9978 91.9956 45.9978C104.695 45.9978 114.995 35.6986 114.995 22.9989C114.995 10.2992 104.695 0 91.9956 0ZM105.122 28.4432C105.058 29.8492 104.835 30.8087 104.508 31.6487C103.822 33.423 102.42 34.8254 100.646 35.5109C99.8063 35.837 98.8468 36.0607 97.4408 36.1245C96.0321 36.19 95.5829 36.2053 91.9956 36.2053C88.4083 36.2053 87.9591 36.19 86.5504 36.1254C85.1454 36.0616 84.185 35.8379 83.345 35.5118C82.4636 35.1802 81.6659 34.6601 81.0055 33.9881C80.3335 33.3287 79.8143 32.53 79.4828 31.6487C79.1567 30.8087 78.933 29.8483 78.8692 28.4432C78.8045 27.0354 78.7892 26.5853 78.7892 22.9989C78.7892 19.4125 78.8045 18.9624 78.8692 17.5537C78.933 16.1477 79.1558 15.1883 79.4828 14.3483C79.8143 13.4669 80.3344 12.6683 81.0064 12.0088C81.6659 11.3368 82.4645 10.8167 83.3459 10.4852C84.1859 10.159 85.1462 9.93535 86.5513 9.87156C87.96 9.80778 88.4092 9.79161 91.9956 9.79161C95.582 9.79161 96.0321 9.80688 97.4408 9.87156C98.8468 9.93535 99.8063 10.159 100.646 10.4843C101.528 10.8158 102.326 11.3359 102.986 12.0079C103.658 12.6674 104.178 13.466 104.508 14.3474C104.835 15.1874 105.058 16.1469 105.123 17.5528C105.187 18.9615 105.202 19.4107 105.202 22.998C105.202 26.5853 105.187 27.0354 105.122 28.4432Z" fill="white"/>
</svg>
