<svg width="269" height="81" viewBox="0 0 269 81" fill="none" xmlns="http://www.w3.org/2000/svg">
<path d="M40.8492 80.043C39.5073 80.043 38.2838 79.644 37.1392 79.0853L3.70998 59.5335C1.42084 58.2965 0 55.7827 0 53.1492C0 50.5157 1.42084 48.0417 3.70998 46.6851C1.42084 45.3284 0 42.9343 0 40.3008C0 37.5875 1.42084 35.1934 3.70998 33.8367L4.10466 33.5574L3.70998 33.3579C1.42084 32.0411 0 29.6071 0 26.8938C0 24.1805 1.42084 21.7864 3.70998 20.4297L37.2182 0.957643C38.2838 0.279312 39.5863 0 40.9282 0C42.1517 0 43.4936 0.279312 44.6381 0.957643L78.1463 20.4696C80.4355 21.8263 81.8563 24.2204 81.8563 26.9337C81.8563 29.647 80.4355 32.0411 78.1463 33.3978L77.6727 33.5973L78.0674 33.7968C80.3565 35.1535 81.7774 37.5476 81.7774 40.2609C81.7774 42.9742 80.3565 45.3683 78.0674 46.725C80.3565 48.0816 81.7774 50.4757 81.7774 53.1891C81.7774 55.9024 80.3565 58.2965 78.0674 59.6532L44.5592 79.1252C43.4146 79.6839 42.0727 80.043 40.8492 80.043Z" fill="white"/>
<path d="M39.5073 18.5156L5.99909 37.9877C4.26251 39.0651 4.26251 41.6587 5.99909 42.6163L39.5073 62.0884C40.2572 62.5672 41.3228 62.5672 42.1911 62.0884L75.6993 42.6163C77.4359 41.539 77.4359 38.9454 75.6993 37.9877L42.1911 18.5156C41.3228 17.957 40.3756 17.957 39.5073 18.5156Z" fill="#A5A4A4"/>
<path d="M39.5073 5.10912L5.99909 24.7009C4.26251 25.7782 4.26251 28.3719 5.99909 29.3295L39.5073 48.8016C40.2572 49.2804 41.3228 49.2804 42.1911 48.8016L75.6993 29.3295C77.4359 28.2521 77.4359 25.6585 75.6993 24.7009L42.1911 5.10912C41.3228 4.63029 40.3756 4.63029 39.5073 5.10912Z" fill="#E4003B"/>
<path d="M39.5073 31.3591L5.99909 50.8311C4.26251 51.9085 4.26251 54.5021 5.99909 55.4597L39.5073 74.9318C40.2572 75.4106 41.3228 75.4106 42.1911 74.9318L75.6993 55.4597C77.4359 54.3824 77.4359 51.7888 75.6993 50.8311L42.1911 31.3591C41.3228 30.7605 40.3756 30.7605 39.5073 31.3591Z" fill="#24A6DF"/>
<path d="M68.1215 33.5583L42.1517 18.5154C41.2834 18.0365 40.3362 18.0365 39.4679 18.5154L13.4191 33.5583L24.4701 40.0224L13.0244 46.686L39.4679 62.0083C40.2178 62.4871 41.2834 62.4871 42.1517 62.0083L68.5951 46.686L57.1495 40.0224L68.1215 33.5583Z" fill="#020203"/>
<path d="M47.9929 33.9557C47.9929 36.0705 47.1246 37.8262 45.3091 39.0631C47.6772 40.1405 49.3348 42.4548 49.3348 45.0484C49.3348 48.9987 45.7038 52.3903 41.0466 52.3903C36.192 52.3903 33.1135 48.7193 33.1135 46.1257C33.1135 44.8888 34.4554 43.8912 35.6789 43.8912C37.9681 43.8912 37.4155 47.7617 41.1255 47.7617C42.8621 47.7617 44.2829 46.405 44.2829 44.6893C44.2829 40.0607 38.639 43.4523 38.639 39.5818C38.639 36.1104 43.2962 38.4247 43.2962 34.7537C43.2962 33.5168 42.4279 32.5192 40.9282 32.5192C37.7707 32.5192 38.2443 35.7912 35.9552 35.7912C34.6133 35.7912 33.8634 34.5542 33.8634 33.2774C33.8634 30.6837 37.3761 27.8906 41.0071 27.8906C45.7038 27.8906 47.9929 31.3621 47.9929 33.9557Z" fill="white"/>
<path d="M100.169 22.7817H97.1304C95.7885 22.7817 95.236 21.8241 95.236 20.8665C95.236 19.9088 95.9069 18.9512 97.1304 18.9512H107.55C108.773 18.9512 109.444 19.9088 109.444 20.8665C109.444 21.8241 108.852 22.7817 107.55 22.7817H104.511V37.0666C104.511 38.503 103.643 39.3011 102.419 39.3011C101.196 39.3011 100.327 38.5429 100.327 37.0666V22.7817H100.169Z" fill="white"/>
<path d="M110.194 26.0562C110.194 24.6996 111.063 23.7419 112.207 23.7419C113.352 23.7419 114.023 24.3404 114.22 25.4976C114.97 24.2606 116.588 23.6621 118.048 23.6621C122.429 23.6621 124.521 27.8119 124.521 31.7622C124.521 35.6326 121.956 39.4632 117.851 39.4632C116.628 39.4632 115.167 38.9844 114.141 38.0267V43.0544C114.141 44.411 113.273 45.3687 112.128 45.3687C110.984 45.3687 110.115 44.4908 110.115 43.0544V26.0562H110.194ZM117.456 35.6725C119.548 35.6725 120.614 33.438 120.614 31.5228C120.614 29.6075 119.548 27.373 117.456 27.373C115.246 27.373 114.299 29.408 114.299 31.443C114.22 33.3582 115.167 35.6725 117.456 35.6725Z" fill="white"/>
<path d="M130.52 32.8794C130.796 34.9144 132.415 35.8721 134.349 35.8721C136.44 35.8721 137.861 34.2361 138.927 34.2361C139.795 34.2361 140.545 35.1139 140.545 35.9918C140.545 37.7474 136.914 39.4632 133.954 39.4632C129.376 39.4632 126.337 36.0716 126.337 31.5627C126.337 27.4129 129.297 23.6621 133.599 23.6621C137.98 23.6621 140.861 27.7321 140.861 31.0838C140.861 32.3208 140.269 32.9193 139.045 32.9193L130.52 32.8794ZM136.914 30.206C136.717 28.3705 135.572 27.1336 133.678 27.1336C131.862 27.1336 130.639 28.4902 130.441 30.206H136.914Z" fill="white"/>
<path d="M145.873 27.4932H142.992C141.847 27.4932 141.177 26.8149 141.177 25.6577C141.177 24.5804 141.926 23.8223 142.992 23.8223H152.741C153.806 23.8223 154.635 24.3011 154.635 25.6577C154.635 26.8947 153.767 27.4932 152.741 27.4932H149.859V36.95C149.859 38.3066 148.991 39.2643 147.847 39.2643C146.702 39.2643 145.834 38.3864 145.834 36.95L145.873 27.4932Z" fill="white"/>
<path d="M168.133 39.262C166.989 39.262 166.12 38.3842 166.12 36.9477V30.8827H166.041L160.516 38.2246C160.042 38.8231 159.569 39.1822 158.898 39.1822C157.753 39.1822 156.885 38.3044 156.885 36.8679V26.0545C156.885 24.6979 157.753 23.7402 158.898 23.7402C160.042 23.7402 160.91 24.6181 160.91 26.0545V31.9201H160.989L166.16 24.9772C166.752 24.2191 167.383 23.7402 168.173 23.7402C169.317 23.7402 170.185 24.6181 170.185 26.0545V36.9477C170.225 38.3842 169.357 39.262 168.133 39.262Z" fill="white"/>
<path d="M184.236 39.2643C183.091 39.2643 182.223 38.3864 182.223 36.95V30.8849L176.698 38.2268C176.224 38.8254 175.75 39.1845 175.079 39.1845C173.935 39.1845 173.067 38.3066 173.067 36.8702V26.0568C173.067 24.7001 173.935 23.7425 175.079 23.7425C176.224 23.7425 177.092 24.6203 177.092 26.0568V31.9224H177.171L182.341 24.9794C182.933 24.2213 183.565 23.7425 184.354 23.7425C185.499 23.7425 186.367 24.6203 186.367 26.0568V36.95C186.328 38.3864 185.499 39.2643 184.236 39.2643ZM176.816 18.4355C178.553 18.4355 178.158 20.3508 179.855 20.3508C181.394 20.3508 181.078 18.4355 182.894 18.4355C183.644 18.4355 184.118 19.3932 184.118 20.1912C184.118 22.2262 181.434 23.1839 179.737 23.1839C178.039 23.1839 175.356 22.306 175.356 20.1912C175.474 19.3932 175.829 18.4355 176.816 18.4355Z" fill="white"/>
<path d="M199.707 22.7817H196.55C195.208 22.7817 194.655 21.8241 194.655 20.8665C194.655 19.9088 195.326 18.9512 196.55 18.9512H206.969C208.193 18.9512 208.864 19.9088 208.864 20.8665C208.864 21.8241 208.272 22.7817 206.969 22.7817H203.93V37.0666C203.93 38.503 203.062 39.3011 201.839 39.3011C200.615 39.3011 199.747 38.5429 199.747 37.0666V22.7817H199.707Z" fill="white"/>
<path d="M209.732 26.0562C209.732 24.6996 210.6 23.7419 211.745 23.7419C212.89 23.7419 213.561 24.3404 213.758 25.4976C214.508 24.2606 216.126 23.6621 217.586 23.6621C221.967 23.6621 224.059 27.8119 224.059 31.7622C224.059 35.6326 221.494 39.4632 217.389 39.4632C216.165 39.4632 214.705 38.9844 213.679 38.0267V43.0544C213.679 44.411 212.811 45.3687 211.666 45.3687C210.521 45.3687 209.653 44.4908 209.653 43.0544V26.0562H209.732ZM216.955 35.6725C219.047 35.6725 220.112 33.438 220.112 31.5228C220.112 29.6075 219.047 27.373 216.955 27.373C214.745 27.373 213.797 29.408 213.797 31.443C213.718 33.3582 214.666 35.6725 216.955 35.6725Z" fill="white"/>
<path d="M229.545 32.8794C229.821 34.9144 231.439 35.8721 233.373 35.8721C235.465 35.8721 236.886 34.2361 237.952 34.2361C238.82 34.2361 239.57 35.1139 239.57 35.9918C239.57 37.7474 235.939 39.4632 232.979 39.4632C228.4 39.4632 225.361 36.0716 225.361 31.5627C225.361 27.4129 228.322 23.6621 232.624 23.6621C237.004 23.6621 239.886 27.7321 239.886 31.0838C239.886 32.3208 239.294 32.9193 238.07 32.9193L229.545 32.8794ZM235.939 30.206C235.741 28.3705 234.597 27.1336 232.702 27.1336C230.887 27.1336 229.663 28.4902 229.466 30.206H235.939Z" fill="white"/>
<path d="M252.002 28.171C250.937 28.171 250.108 27.4129 248.766 27.4129C246.477 27.4129 245.332 29.5277 245.332 31.5627C245.332 33.5977 246.556 35.7125 248.766 35.7125C249.831 35.7125 251.331 34.8346 251.805 34.8346C252.752 34.8346 253.541 35.7125 253.541 36.6701C253.541 38.7849 250.029 39.4632 248.568 39.4632C244.188 39.4632 241.306 35.912 241.306 31.5627C241.306 27.4129 244.266 23.6621 248.568 23.6621C250.187 23.6621 253.541 24.2606 253.541 26.2557C253.502 27.0139 252.949 28.171 252.002 28.171Z" fill="white"/>
<path d="M259.343 27.4932H256.462C255.318 27.4932 254.647 26.8149 254.647 25.6577C254.647 24.5804 255.396 23.8223 256.462 23.8223H266.211C267.276 23.8223 268.105 24.3011 268.105 25.6577C268.105 26.8947 267.237 27.4932 266.211 27.4932H263.329V36.95C263.329 38.3066 262.461 39.2643 261.317 39.2643C260.172 39.2643 259.304 38.3864 259.304 36.95V27.4932H259.343Z" fill="white"/>
<path d="M106.879 61.6493C106.405 61.9287 105.34 62.1282 103.919 62.1282C100.761 62.1282 98.4723 60.0932 98.4723 56.4222C98.4723 52.9507 100.84 50.5566 104.195 50.5566C105.537 50.5566 106.484 50.836 106.761 51.0355L106.366 52.1926C105.774 51.9133 105.024 51.7138 104.156 51.7138C101.59 51.7138 99.8537 53.3498 99.8537 56.3424C99.8537 59.0557 101.393 60.8912 104.037 60.8912C104.906 60.8912 105.774 60.6917 106.326 60.4124L106.879 61.6493Z" fill="white"/>
<path d="M109.997 54.0301V57.5016H110.392L113.352 54.0301H115.088L111.655 57.7011C112.878 57.7809 113.667 58.6587 114.338 60.0952C114.536 60.574 114.812 61.4519 115.207 62.0105H113.667C113.47 61.6115 113.194 61.0529 112.918 60.3745C112.326 59.1376 111.694 58.4592 110.352 58.4592H110.076V62.0105H108.655V53.9902H109.997V54.0301Z" fill="white"/>
<path d="M123.455 57.9818C123.455 60.9745 121.443 62.2114 119.548 62.2114C117.456 62.2114 115.72 60.6552 115.72 58.0616C115.72 55.3483 117.456 53.832 119.627 53.832C121.956 53.832 123.455 55.468 123.455 57.9818ZM117.18 58.0616C117.18 59.8173 118.127 61.1341 119.548 61.1341C120.89 61.1341 121.916 59.7774 121.916 58.0616C121.916 56.705 121.245 54.9892 119.548 54.9892C117.93 54.9094 117.18 56.5454 117.18 58.0616Z" fill="white"/>
<path d="M125.271 56.6252C125.271 55.5478 125.271 54.7897 125.192 54.0315H126.534L126.613 55.3882C127.205 54.4306 128.152 53.832 129.494 53.832C131.388 53.832 132.849 55.468 132.849 57.902C132.849 60.8148 131.112 62.2513 129.218 62.2513C128.152 62.2513 127.205 61.7725 126.731 61.0143V65.3636H125.31L125.271 56.6252ZM126.692 58.7399C126.692 58.9395 126.692 59.139 126.771 59.3385C127.047 60.2961 127.915 61.0942 128.981 61.0942C130.52 61.0942 131.349 59.8572 131.349 58.0217C131.349 56.3857 130.481 55.0291 128.981 55.0291C128.034 55.0291 127.086 55.7074 126.771 56.8646C126.692 57.0641 126.692 57.2636 126.692 57.4631V58.7399Z" fill="white"/>
<path d="M141.769 57.9818C141.769 60.9745 139.756 62.2114 137.861 62.2114C135.769 62.2114 134.033 60.6552 134.033 58.0616C134.033 55.3483 135.769 53.832 137.94 53.832C140.269 53.832 141.769 55.468 141.769 57.9818ZM135.493 58.0616C135.493 59.8173 136.44 61.1341 137.861 61.1341C139.203 61.1341 140.229 59.7774 140.229 58.0616C140.229 56.705 139.558 54.9892 137.861 54.9892C136.164 54.9892 135.493 56.5454 135.493 58.0616Z" fill="white"/>
<path d="M153.609 54.0293V62.0496H152.188V55.1865H148.478V62.0496H147.057V54.0293H153.609Z" fill="white"/>
<path d="M156.766 58.2561C156.766 60.1714 157.99 61.0492 159.45 61.0492C160.516 61.0492 161.068 60.8497 161.66 60.6502L161.937 61.7276C161.463 61.9271 160.595 62.2064 159.253 62.2064C156.766 62.2064 155.345 60.5704 155.345 58.1364C155.345 55.7423 156.766 53.7871 159.055 53.7871C161.621 53.7871 162.292 56.1014 162.292 57.5379C162.292 57.8172 162.292 58.0167 162.213 58.2162H156.766V58.2561ZM160.95 57.2187C160.95 56.261 160.555 54.8246 158.937 54.8246C157.516 54.8246 156.845 56.1812 156.727 57.2187H160.95Z" fill="white"/>
<path d="M164.107 56.6252C164.107 55.5478 164.107 54.7897 164.028 54.0315H165.37L165.449 55.3882C166.041 54.4306 166.988 53.832 168.33 53.832C170.225 53.832 171.685 55.468 171.685 57.902C171.685 60.8148 169.949 62.2513 168.054 62.2513C166.988 62.2513 166.041 61.7725 165.568 61.0143V65.3636H164.147V56.6252H164.107ZM165.528 58.7399C165.528 58.9395 165.528 59.139 165.607 59.3385C165.883 60.2961 166.752 61.0942 167.817 61.0942C169.357 61.0942 170.185 59.8572 170.185 58.0217C170.185 56.3857 169.317 55.0291 167.817 55.0291C166.87 55.0291 165.923 55.7074 165.607 56.8646C165.528 57.0641 165.528 57.2636 165.528 57.4631V58.7399Z" fill="white"/>
<path d="M174.211 58.2561C174.211 60.1714 175.435 61.0492 176.895 61.0492C177.96 61.0492 178.513 60.8497 179.105 60.6502L179.381 61.7276C178.908 61.9271 178.039 62.2064 176.697 62.2064C174.211 62.2064 172.79 60.5704 172.79 58.1364C172.79 55.7423 174.211 53.7871 176.5 53.7871C179.066 53.7871 179.737 56.1014 179.737 57.5379C179.737 57.8172 179.737 58.0167 179.658 58.2162H174.211V58.2561ZM178.513 57.2187C178.513 56.261 178.118 54.8246 176.5 54.8246C175.079 54.8246 174.408 56.1812 174.29 57.2187H178.513Z" fill="white"/>
<path d="M182.42 58.2561C182.42 60.1714 183.644 61.0492 185.104 61.0492C186.17 61.0492 186.722 60.8497 187.314 60.6502L187.591 61.7276C187.117 61.9271 186.249 62.2064 184.907 62.2064C182.42 62.2064 181 60.5704 181 58.1364C181 55.7423 182.42 53.7871 184.709 53.7871C187.275 53.7871 187.946 56.1014 187.946 57.5379C187.946 57.8172 187.946 58.0167 187.867 58.2162H182.42V58.2561ZM186.722 57.2187C186.722 56.261 186.328 54.8246 184.709 54.8246C183.289 54.8246 182.618 56.1812 182.499 57.2187H186.722Z" fill="white"/>
<path d="M190.551 57.3833H191.222C192.445 57.3833 193.235 56.7848 193.235 56.0266C193.235 55.3483 192.564 54.8695 191.695 54.8695C191.024 54.8695 190.353 55.069 189.801 55.468L189.406 54.5902C190.156 54.1113 191.143 53.832 192.09 53.832C193.314 53.832 194.774 54.4306 194.774 55.9468C194.774 56.9045 193.906 57.5828 192.958 57.7823C194.103 57.8621 195.169 58.6601 195.169 59.8173C195.169 61.573 193.432 62.2114 191.735 62.2114C190.788 62.2114 189.84 61.9321 189.169 61.5331L189.564 60.5754C190.156 60.8547 190.906 61.174 191.656 61.174C192.879 61.174 193.55 60.5754 193.55 59.8173C193.55 58.74 192.406 58.4606 191.261 58.4606H190.511V57.3833H190.551Z" fill="white"/>
<path d="M203.141 54.0293V60.9722H204.009L203.93 64.6432H202.786L202.707 62.1294H197.26L197.181 64.6432H196.037L195.958 60.9722H196.629C197.024 60.4934 197.221 59.8949 197.379 59.3362C197.655 58.3786 197.852 57.3012 197.852 56.1441V54.0293H203.141ZM199.115 56.4234C199.115 57.5007 198.918 58.5382 198.721 59.416C198.523 60.0146 198.326 60.4934 198.05 60.8525H201.681V55.0667H199.115V56.4234Z" fill="white"/>
</svg>
