<svg width="221" height="72" viewBox="0 0 221 72" fill="none" xmlns="http://www.w3.org/2000/svg">
<g clip-path="url(#clip0_1248_350)">
<path d="M14.657 12.6798L14.6327 3.58358L10.1528 11.1802H9.34933L4.86944 3.63275V12.6798H3.16513V0.190918H4.62597L9.78758 8.96758L14.8762 0.190918H16.337L16.3613 12.6798H14.657Z" fill="white"/>
<path d="M20.7438 0.190918H22.4968V9.82804L29.8254 0.190918H31.4566V12.6798H29.7036V3.0673L22.3751 12.6798H20.7438V0.190918Z" fill="white"/>
<path d="M40.1486 7.1975H37.5678V12.7044H35.8391V0.190918H37.5678V5.62409H40.173L44.0685 0.190918H45.9676L41.5364 6.2387L46.1624 12.6798H44.1416L40.1486 7.1975Z" fill="white"/>
<path d="M57.143 1.34639C58.0682 2.10851 58.5308 3.19023 58.5308 4.54237C58.5308 5.89452 58.0682 6.97624 57.143 7.73836C56.2178 8.50048 54.9517 8.89383 53.3692 8.89383H50.3014V12.6798H48.524V0.190918H53.3448C54.9517 0.190918 56.2178 0.58427 57.143 1.34639ZM55.8526 6.63205C56.4369 6.14036 56.7291 5.452 56.7291 4.54237C56.7291 3.63275 56.4369 2.94438 55.8526 2.45269C55.2682 1.961 54.4161 1.73974 53.2961 1.73974H50.3014V7.34501H53.2961C54.4161 7.34501 55.2682 7.09916 55.8526 6.63205Z" fill="white"/>
<path d="M63.8628 11.991C62.8646 11.4256 62.0855 10.6635 61.5011 9.70467C60.9412 8.72129 60.649 7.63958 60.649 6.43494C60.649 5.2303 60.9412 4.14858 61.5011 3.1652C62.0611 2.18182 62.8646 1.4197 63.8628 0.878841C64.8611 0.313398 65.981 0.0429688 67.2471 0.0429688C68.4888 0.0429688 69.6088 0.313398 70.607 0.878841C71.6053 1.44428 72.3844 2.2064 72.9687 3.1652C73.5287 4.12399 73.8209 5.2303 73.8209 6.43494C73.8209 7.63958 73.5287 8.74588 72.9687 9.70467C72.4087 10.6635 71.6296 11.4256 70.607 11.991C69.6088 12.5565 68.4888 12.8269 67.2471 12.8269C66.0054 12.8269 64.8854 12.5565 63.8628 11.991ZM69.7062 10.6143C70.4366 10.1964 70.9966 9.63092 71.4105 8.89338C71.8244 8.15585 72.0435 7.34456 72.0435 6.43494C72.0435 5.52531 71.8244 4.71402 71.4105 3.97649C70.9966 3.23895 70.4122 2.67351 69.7062 2.25557C68.9757 1.83764 68.1723 1.64096 67.2471 1.64096C66.3462 1.64096 65.5184 1.83764 64.788 2.25557C64.0576 2.67351 63.4733 3.23895 63.0594 3.97649C62.6455 4.71402 62.4263 5.52531 62.4263 6.43494C62.4263 7.34456 62.6455 8.15585 63.0594 8.89338C63.4733 9.63092 64.0576 10.1964 64.788 10.6143C65.5184 11.0322 66.3462 11.2289 67.2471 11.2289C68.1723 11.2289 68.9757 11.0322 69.7062 10.6143Z" fill="white"/>
<path d="M85.3127 1.73974H78.9338L78.9581 12.6798H77.2051V0.190918H85.3127V1.73974Z" fill="white"/>
<path d="M88.5996 11.991C87.6014 11.4256 86.8223 10.6635 86.238 9.70467C85.678 8.72129 85.3858 7.63958 85.3858 6.43494C85.3858 5.2303 85.678 4.14858 86.238 3.1652C86.7979 2.18182 87.6014 1.4197 88.5996 0.878841C89.5979 0.313398 90.7178 0.0429688 91.9839 0.0429688C93.2256 0.0429688 94.3456 0.313398 95.3438 0.878841C96.3421 1.44428 97.1212 2.2064 97.7055 3.1652C98.2655 4.12399 98.5577 5.2303 98.5577 6.43494C98.5577 7.63958 98.2655 8.74588 97.7055 9.70467C97.1455 10.6635 96.3664 11.4256 95.3438 11.991C94.3456 12.5565 93.2256 12.8269 91.9839 12.8269C90.7178 12.8269 89.5979 12.5565 88.5996 11.991ZM94.4186 10.6143C95.1491 10.1964 95.709 9.63092 96.1229 8.89338C96.5368 8.15585 96.756 7.34456 96.756 6.43494C96.756 5.52531 96.5368 4.71402 96.1229 3.97649C95.709 3.23895 95.1247 2.67351 94.4186 2.25557C93.6882 1.83764 92.8848 1.64096 91.9596 1.64096C91.0587 1.64096 90.2309 1.83764 89.5005 2.25557C88.7701 2.67351 88.1857 3.23895 87.7718 3.97649C87.3579 4.71402 87.1388 5.52531 87.1388 6.43494C87.1388 7.34456 87.3579 8.15585 87.7718 8.89338C88.1857 9.63092 88.7701 10.1964 89.5005 10.6143C90.2309 11.0322 91.0587 11.2289 91.9596 11.2289C92.8848 11.2289 93.7126 11.0322 94.4186 10.6143Z" fill="white"/>
<path d="M110.536 1.34639C111.462 2.10851 111.924 3.19023 111.924 4.54237C111.924 5.89452 111.462 6.97624 110.536 7.73836C109.611 8.50048 108.345 8.89383 106.763 8.89383H103.695V12.6798H101.918V0.190918H106.738C108.37 0.190918 109.636 0.58427 110.536 1.34639ZM109.27 6.63205C109.855 6.14036 110.147 5.452 110.147 4.54237C110.147 3.63275 109.855 2.94438 109.27 2.45269C108.686 1.961 107.834 1.73974 106.714 1.73974H103.719V7.34501H106.714C107.834 7.34501 108.686 7.09916 109.27 6.63205Z" fill="white"/>
<path d="M117.281 11.991C116.282 11.4256 115.503 10.6635 114.919 9.70467C114.359 8.72129 114.067 7.63958 114.067 6.43494C114.067 5.2303 114.359 4.14858 114.919 3.1652C115.479 2.18182 116.282 1.4197 117.281 0.878841C118.279 0.313398 119.399 0.0429688 120.665 0.0429688C121.907 0.0429688 123.027 0.313398 124.025 0.878841C125.023 1.44428 125.802 2.2064 126.387 3.1652C126.947 4.12399 127.239 5.2303 127.239 6.43494C127.239 7.63958 126.947 8.74588 126.387 9.70467C125.827 10.6635 125.047 11.4256 124.025 11.991C123.027 12.5565 121.907 12.8269 120.665 12.8269C119.423 12.8269 118.279 12.5565 117.281 11.991ZM123.124 10.6143C123.854 10.1964 124.414 9.63092 124.828 8.89338C125.242 8.15585 125.461 7.34456 125.461 6.43494C125.461 5.52531 125.242 4.71402 124.828 3.97649C124.414 3.23895 123.83 2.67351 123.124 2.25557C122.394 1.83764 121.59 1.64096 120.665 1.64096C119.764 1.64096 118.936 1.83764 118.206 2.25557C117.475 2.67351 116.891 3.23895 116.477 3.97649C116.063 4.71402 115.844 5.52531 115.844 6.43494C115.844 7.34456 116.063 8.15585 116.477 8.89338C116.891 9.63092 117.475 10.1964 118.206 10.6143C118.936 11.0322 119.764 11.2289 120.665 11.2289C121.566 11.2289 122.394 11.0322 123.124 10.6143Z" fill="white"/>
<path d="M142.066 11.131V15.4087H140.411V12.6798H130.233L130.209 15.4087H128.553L128.578 11.131H129.186C129.966 11.0818 130.501 10.4672 130.842 9.2626C131.159 8.05796 131.353 6.38621 131.426 4.19819L131.548 0.190918H140.24V11.131H142.066ZM132.546 8.74632C132.327 9.90179 131.986 10.6885 131.499 11.131H138.487V1.73974H133.058L132.96 4.37028C132.912 6.11578 132.766 7.59085 132.546 8.74632Z" fill="white"/>
<path d="M68.4645 27.3813H57.6543V49.2124H68.4645C74.4296 49.2124 79.2747 44.3201 79.2747 38.2969C79.2747 32.2737 74.4296 27.3813 68.4645 27.3813Z" fill="url(#paint0_linear_1248_350)"/>
<path d="M10.8102 27.3813C4.8451 27.3813 0 32.2737 0 38.2969C0 44.3201 4.8451 49.2124 10.8102 49.2124H21.6204H36.0339V27.3813H10.8102Z" fill="url(#paint1_linear_1248_350)"/>
<path d="M127.312 27.3813V71.0434H141.725V27.3813H127.312Z" fill="url(#paint2_linear_1248_350)"/>
<path d="M192.173 27.3812H206.586V12.8271C198.625 12.8271 192.173 19.342 192.173 27.3812Z" fill="url(#paint3_linear_1248_350)"/>
<path d="M192.173 27.3813H177.759V71.0434H192.173V27.3813Z" fill="url(#paint4_linear_1248_350)"/>
<path d="M21.6204 49.2112L0 71.0423H36.0339V61.5772V49.2112V34.6572L21.6204 49.2112Z" fill="url(#paint5_linear_1248_350)"/>
<path d="M98.4846 49.2119H84.071V63.7659V71.0429H98.4846H120.105C120.105 58.972 110.439 49.2119 98.4846 49.2119Z" fill="url(#paint6_linear_1248_350)"/>
<path d="M141.725 56.4894L127.312 71.0434H141.725H170.552V27.3813L141.725 56.4894Z" fill="url(#paint7_linear_1248_350)"/>
<path d="M192.173 56.4894L177.759 71.0434H192.173H221V27.3813L192.173 56.4894Z" fill="url(#paint8_linear_1248_350)"/>
<path d="M43.2407 41.9354V49.2124H57.6543V27.3813L43.2407 41.9354Z" fill="#646865"/>
<path d="M68.4645 27.3813H57.6543L43.2407 41.9354V49.2124H57.6543H68.4645C74.4296 49.2124 79.2747 44.3201 79.2747 38.2969C79.2747 32.2737 74.4296 27.3813 68.4645 27.3813Z" fill="url(#paint9_linear_1248_350)"/>
<path d="M57.6543 27.3813L43.2407 41.9354V71.0434H57.6543V27.3813Z" fill="url(#paint10_linear_1248_350)"/>
<path d="M84.071 27.3813V49.2124V63.7664L98.4846 49.2124L120.105 27.3813H84.071Z" fill="url(#paint11_linear_1248_350)"/>
</g>
<defs>
<linearGradient id="paint0_linear_1248_350" x1="57.6512" y1="38.2922" x2="79.2698" y2="38.2922" gradientUnits="userSpaceOnUse">
<stop stop-color="#288DCD"/>
<stop offset="0.2035" stop-color="#3093CC"/>
<stop offset="0.5255" stop-color="#47A4CB"/>
<stop offset="0.9237" stop-color="#6CBFC8"/>
<stop offset="1" stop-color="#74C5C7"/>
</linearGradient>
<linearGradient id="paint1_linear_1248_350" x1="8.35279" y1="51.2466" x2="34.2609" y2="25.5885" gradientUnits="userSpaceOnUse">
<stop offset="0.0250496" stop-color="#E5301F"/>
<stop offset="0.3473" stop-color="#E22E1F"/>
<stop offset="0.6312" stop-color="#D72820"/>
<stop offset="0.8999" stop-color="#C51D21"/>
<stop offset="1" stop-color="#BC1822"/>
</linearGradient>
<linearGradient id="paint2_linear_1248_350" x1="120.109" y1="63.7626" x2="149.217" y2="34.9362" gradientUnits="userSpaceOnUse">
<stop stop-color="white"/>
<stop offset="1" stop-color="#A0D9F7"/>
</linearGradient>
<linearGradient id="paint3_linear_1248_350" x1="194.284" y1="29.5092" x2="208.837" y2="15.0968" gradientUnits="userSpaceOnUse">
<stop stop-color="#A6C41F"/>
<stop offset="1" stop-color="#82B428"/>
</linearGradient>
<linearGradient id="paint4_linear_1248_350" x1="170.554" y1="63.7618" x2="199.659" y2="34.937" gradientUnits="userSpaceOnUse">
<stop offset="0.1534" stop-color="#C5D210"/>
<stop offset="1" stop-color="#82B428"/>
</linearGradient>
<linearGradient id="paint5_linear_1248_350" x1="9.00746" y1="80.1331" x2="45.3911" y2="44.1006" gradientUnits="userSpaceOnUse">
<stop stop-color="white"/>
<stop offset="1" stop-color="#A0D9F7"/>
</linearGradient>
<linearGradient id="paint6_linear_1248_350" x1="87.6786" y1="74.6757" x2="110.39" y2="52.1835" gradientUnits="userSpaceOnUse">
<stop stop-color="white"/>
<stop offset="1" stop-color="#A0D9F7"/>
</linearGradient>
<linearGradient id="paint7_linear_1248_350" x1="138.124" y1="81.953" x2="181.782" y2="38.7162" gradientUnits="userSpaceOnUse">
<stop offset="0.0250496" stop-color="#E5301F"/>
<stop offset="0.3473" stop-color="#E22E1F"/>
<stop offset="0.6312" stop-color="#D72820"/>
<stop offset="0.8999" stop-color="#C51D21"/>
<stop offset="1" stop-color="#BC1822"/>
</linearGradient>
<linearGradient id="paint8_linear_1248_350" x1="188.57" y1="81.9538" x2="232.229" y2="38.7162" gradientUnits="userSpaceOnUse">
<stop stop-color="#F2D617"/>
<stop offset="1" stop-color="#E85B0E"/>
</linearGradient>
<linearGradient id="paint9_linear_1248_350" x1="48.8617" y1="54.8852" x2="74.7703" y2="29.2267" gradientUnits="userSpaceOnUse">
<stop offset="0.2178" stop-color="#C5D210"/>
<stop offset="1" stop-color="#82B428"/>
</linearGradient>
<linearGradient id="paint10_linear_1248_350" x1="39.6346" y1="67.4003" x2="68.7407" y2="38.5751" gradientUnits="userSpaceOnUse">
<stop stop-color="#F2D617"/>
<stop offset="1" stop-color="#E85B0E"/>
</linearGradient>
<linearGradient id="paint11_linear_1248_350" x1="75.0687" y1="54.6645" x2="111.449" y2="18.6356" gradientUnits="userSpaceOnUse">
<stop stop-color="#F2D617"/>
<stop offset="1" stop-color="#E85B0E"/>
</linearGradient>
<clipPath id="clip0_1248_350">
<rect width="221" height="71" fill="white" transform="translate(0 0.0429688)"/>
</clipPath>
</defs>
</svg>
