<svg fill="none" height="73" viewBox="0 0 242 73" width="242" xmlns="http://www.w3.org/2000/svg" xmlns:xlink="http://www.w3.org/1999/xlink"><linearGradient id="a" gradientUnits="userSpaceOnUse" x1="63.1261" x2="86.7978" y1="38.9812" y2="38.9812"><stop offset="0" stop-color="#2c8dcd"/><stop offset=".1915" stop-color="#3493ce"/><stop offset=".4946" stop-color="#49a3ce"/><stop offset=".8693" stop-color="#69bccb"/><stop offset="1" stop-color="#75c6c8"/></linearGradient><linearGradient id="b"><stop offset=".0250496" stop-color="#e53322"/><stop offset=".3378" stop-color="#e23122"/><stop offset=".6133" stop-color="#d82a23"/><stop offset=".8741" stop-color="#c72023"/><stop offset="1" stop-color="#bd1823"/></linearGradient><linearGradient id="c" gradientUnits="userSpaceOnUse" x1="9.14607" x2="35.5008" xlink:href="#b" y1="52.1837" y2="24.1415"/><linearGradient id="d"><stop offset=".2763" stop-color="#8dcfee"/><stop offset=".5857" stop-color="#67b9e6"/><stop offset=".9594" stop-color="#30a3dd"/></linearGradient><linearGradient id="e" gradientUnits="userSpaceOnUse" x1="131.516" x2="161.125" xlink:href="#d" y1="64.9394" y2="33.4344"/><linearGradient id="f" gradientUnits="userSpaceOnUse" x1="212.735" x2="227.538" y1="30.03" y2="14.2784"><stop offset="0" stop-color="#a7c521"/><stop offset="1" stop-color="#82b428"/></linearGradient><linearGradient id="g" gradientUnits="userSpaceOnUse" x1="186.751" x2="216.359" y1="64.9386" y2="33.4355"><stop offset=".1534" stop-color="#c6d215"/><stop offset="1" stop-color="#82b428"/></linearGradient><linearGradient id="h" gradientUnits="userSpaceOnUse" x1="9.8629" x2="46.8737" xlink:href="#d" y1="81.6243" y2="42.2437"/><linearGradient id="i" gradientUnits="userSpaceOnUse" x1="96.0053" x2="119.108" xlink:href="#d" y1="76.062" y2="51.4798"/><linearGradient id="j" gradientUnits="userSpaceOnUse" x1="151.242" x2="195.653" xlink:href="#b" y1="83.4782" y2="36.2239"/><linearGradient id="k"><stop offset="0" stop-color="#f3d719"/><stop offset="1" stop-color="#e85c0d"/></linearGradient><linearGradient id="l" gradientUnits="userSpaceOnUse" x1="206.479" x2="250.89" xlink:href="#k" y1="83.479" y2="36.2239"/><linearGradient id="m" gradientUnits="userSpaceOnUse" x1="53.5023" x2="79.8575" y1="55.892" y2="27.8493"><stop offset=".2178" stop-color="#c6d215"/><stop offset="1" stop-color="#82b428"/></linearGradient><linearGradient id="n" gradientUnits="userSpaceOnUse" x1="43.3989" x2="73.0068" xlink:href="#k" y1="68.6468" y2="37.1431"/><linearGradient id="o" gradientUnits="userSpaceOnUse" x1="82.1984" x2="119.205" xlink:href="#k" y1="55.6671" y2="16.2904"/><g fill="#646865"><path d="m16.0605 12.9063v-9.28869l-4.9417 7.72569h-.9028l-4.89418-7.68103v9.24403h-1.85313v-12.771931h1.56804l5.65447 8.976051 5.6069-8.976051h1.568v12.727231h-1.8056z"/><path d="m22.7132.134369h1.9006v9.824521l8.0303-9.824521h1.7581v12.727231h-1.9007v-9.82453l-8.0302 9.82453h-1.7581z"/><path d="m43.953 7.27948h-2.851v5.62682h-1.9007v-12.771931h1.9007v5.537461h2.851l4.2764-5.537461h2.0907l-4.8466 6.162661 5.0842 6.56457h-2.1857z"/><path d="m62.579 1.34011c.9979.80382 1.5205 1.87559 1.5205 3.25995 0 1.38437-.5226 2.45613-1.5205 3.25996-.9978.80382-2.3758 1.16108-4.1339 1.16108h-3.3737v3.8405h-1.9481v-12.727231h5.2743c1.7581 0 3.1361.401912 4.1814 1.205741zm-1.4255 5.35883c.6652-.49123.9503-1.20574.9503-2.09888 0-.93779-.3326-1.60765-.9503-2.09887-.6652-.49123-1.568-.75917-2.8034-.75917h-3.2787v5.71609h3.2787c1.2354 0 2.1857-.26795 2.8034-.75917z"/><path d="m69.9446 12.1913c-1.0929-.5805-1.9482-1.3397-2.5659-2.32216-.6177-.98244-.9503-2.09886-.9503-3.34925 0-1.20574.3326-2.32215.9503-3.34926.6177-.98245 1.473-1.78627 2.5659-2.322152 1.0928-.580537 2.3283-.848478 3.7062-.848478 1.378 0 2.5659.267941 3.6588.848478 1.0929.580542 1.9482 1.339702 2.5659 2.322152s.9503 2.09887.9503 3.34926-.3326 2.36681-.9503 3.34925c-.6177.98246-1.473 1.78626-2.5659 2.32216-1.0929.5805-2.3283.8485-3.6588.8485-1.3779 0-2.6134-.3126-3.7062-.8485zm6.3671-1.429c.8078-.4466 1.4255-1.02713 1.9007-1.74163.4752-.75917.6652-1.56299.6652-2.50078s-.2376-1.74162-.6652-2.50078c-.4752-.75917-1.0929-1.3397-1.9007-1.74162-.8077-.44656-1.7105-.62519-2.6609-.62519-.9978 0-1.9006.22328-2.7084.62519-.8078.44657-1.4255 1.02711-1.9006 1.74162-.4752.75916-.6653 1.56299-.6653 2.50078s.2376 1.74161.6653 2.50078c.4751.75916 1.0928 1.33973 1.9006 1.74163.8078.4465 1.7106.6252 2.7084.6252.9979.0446 1.9007-.1787 2.6609-.6252z"/><path d="m93.4169 1.74202h-6.9849v11.16428h-1.9006v-12.771931h8.8855z"/><path d="m97.0292 12.1913c-1.0929-.5805-1.9482-1.3397-2.5659-2.32216-.6177-.98244-.9503-2.09886-.9503-3.34925 0-1.20574.3326-2.32215.9503-3.34926.6177-.98245 1.473-1.78627 2.5659-2.322152 1.0928-.580537 2.3282-.848478 3.7058-.848478 1.378 0 2.566.267941 3.659.848478 1.093.580542 1.948 1.339702 2.566 2.322152s.95 2.09887.95 3.34926-.332 2.36681-.95 3.34925c-.618.98246-1.473 1.78626-2.566 2.32216-1.093.5805-2.328.8485-3.659.8485-1.3776 0-2.613-.3126-3.7058-.8485zm6.3668-1.429c.808-.4466 1.426-1.02713 1.901-1.74163.475-.75917.665-1.56299.665-2.50078s-.237-1.74162-.665-2.50078c-.475-.75917-1.093-1.3397-1.901-1.74162-.807-.44656-1.71-.62519-2.661-.62519-.9974 0-1.9002.22328-2.708.62519-.8078.44657-1.4255 1.02711-1.9007 1.74162-.4751.75916-.6652 1.56299-.6652 2.50078s.2376 1.74161.6652 2.50078c.4752.75916 1.0929 1.33973 1.9007 1.74163.8078.4465 1.7106.6252 2.708.6252.951.0446 1.854-.1787 2.661-.6252z"/><path d="m121.024 1.34011c.998.80382 1.521 1.87559 1.521 3.25995 0 1.38437-.523 2.45613-1.521 3.25996-.998.80382-2.376 1.16108-4.134 1.16108h-3.326v3.8405h-1.948v-12.727231h5.274c1.758 0 3.136.401912 4.134 1.205741zm-1.378 5.35883c.665-.49123.951-1.20574.951-2.09888 0-.93779-.333-1.60765-.951-2.09887-.665-.49123-1.568-.75917-2.803-.75917h-3.279v5.71609h3.279c1.235 0 2.186-.26795 2.803-.75917z"/><path d="m128.436 12.1913c-1.093-.5805-1.948-1.3397-2.566-2.32216-.617-.98244-.95-2.09886-.95-3.34925 0-1.20574.333-2.32215.95-3.34926.618-.98245 1.473-1.78627 2.566-2.322152 1.093-.580537 2.329-.848478 3.707-.848478 1.377 0 2.565.267941 3.658.848478 1.093.580542 1.948 1.339702 2.566 2.322152s.95 2.09887.95 3.34926-.332 2.36681-.95 3.34925c-.618.98246-1.473 1.78626-2.566 2.32216-1.093.5805-2.328.8485-3.658.8485-1.378 0-2.614-.3126-3.707-.8485zm6.367-1.429c.808-.4466 1.426-1.02713 1.901-1.74163.475-.75917.665-1.56299.665-2.50078s-.237-1.74162-.665-2.50078c-.475-.75917-1.093-1.3397-1.901-1.74162-.807-.44656-1.71-.62519-2.66-.62519-.998 0-1.901.22328-2.709.62519-.808.44657-1.425 1.02711-1.901 1.74162-.475.75916-.665 1.56299-.665 2.50078s.238 1.74161.665 2.50078c.476.75916 1.093 1.33973 1.901 1.74163.808.4465 1.711.6252 2.709.6252.95.0446 1.853-.1787 2.66-.6252z"/><path d="m155.569 11.2985v4.3764h-1.806v-2.7688h-11.166v2.7688h-1.806v-4.3764h.666c.855-.0447 1.473-.6699 1.805-1.92025.333-1.20573.57-2.94735.618-5.18019l.142-4.1084299h9.551v11.1641699h1.996zm-10.406-2.45613c-.238 1.16103-.618 2.00953-1.141 2.45613h7.651v-9.55657h-5.94l-.095 2.67941c-.095 1.78628-.238 3.25995-.475 4.42103z"/></g><path d="m74.9803 27.866h-11.8316v22.2391h11.8316c6.5572 0 11.8315-5.0015 11.8315-11.1195 0-6.1627-5.3218-11.1196-11.8315-11.1196z" fill="url(#a)"/><path d="m11.8315 27.866c-6.50968 0-11.8315 4.9569-11.8315 11.1196 0 6.1626 5.32182 11.1195 11.8315 11.1195h11.8316 15.7754v-22.2391z" fill="url(#c)"/><path d="m139.412 27.866v44.4783h15.776v-44.4783z" fill="url(#e)"/><path d="m210.401 27.8658h15.775v-14.8261c-8.695 0-15.775 6.6092-15.775 14.8261z" fill="url(#f)"/><path d="m210.402 27.8661h-15.776v44.4782h15.776z" fill="url(#g)"/><path d="m23.6631 50.105-23.6631 22.2391h39.4385v-9.6013-12.6378-14.8261z" fill="url(#h)"/><path d="m107.862 50.1052h-15.7759v14.8261 7.413h15.7759 23.663c0-12.2806-10.596-22.2391-23.663-22.2391z" fill="url(#i)"/><path d="m155.188 57.5182-15.776 14.8261h15.776 31.551v-44.4783z" fill="url(#j)"/><path d="m210.402 57.5182-15.776 14.8261h15.776 31.598v-44.4783z" fill="url(#l)"/><path d="m47.3263 42.6921v7.413h15.8229v-22.2391z" fill="#656966"/><path d="m74.9808 27.866h-11.8316l-15.8229 14.8261v7.413h15.7754 11.8316c6.5572 0 11.8315-5.0015 11.8315-11.1195.0475-6.1627-5.2743-11.1196-11.784-11.1196z" fill="url(#m)"/><path d="m63.1492 27.866-15.8229 14.8261v29.6522h15.8229z" fill="url(#n)"/><path d="m92.0393 27.866v22.2391 14.8261l15.8227-14.8261 23.663-22.2391z" fill="url(#o)"/></svg>